<svg width="60" height="60" viewBox="0 0 60 60" fill="none" xmlns="http://www.w3.org/2000/svg">
<path d="M54.375 1.40625H5.625C4.5189 1.395 3.4535 1.82299 2.66259 2.59633C1.87168 3.36967 1.41985 4.42518 1.40625 5.53125V54.4781C1.42231 55.5826 1.87522 56.6357 2.66586 57.407C3.45651 58.1783 4.5205 58.605 5.625 58.5938H54.375C55.4812 58.6025 56.5458 58.1731 57.3364 57.3993C58.1269 56.6254 58.5789 55.5702 58.5938 54.4641V5.51719C58.574 4.41436 58.1198 3.36388 57.3298 2.59409C56.5399 1.82431 55.478 1.39743 54.375 1.40625Z" fill="#0076B2"/>
<path d="M9.8719 22.8422H18.361V50.1563H9.8719V22.8422ZM14.1188 9.24844C15.0924 9.24844 16.0442 9.53723 16.8537 10.0783C17.6632 10.6193 18.2941 11.3883 18.6664 12.2879C19.0388 13.1875 19.136 14.1774 18.9457 15.1323C18.7554 16.0871 18.2862 16.9641 17.5974 17.6523C16.9086 18.3404 16.0312 18.8088 15.0761 18.9982C14.1211 19.1876 13.1313 19.0894 12.232 18.7162C11.3327 18.3429 10.5644 17.7114 10.0241 16.9014C9.48385 16.0913 9.19597 15.1393 9.1969 14.1656C9.19814 12.8611 9.71725 11.6104 10.6401 10.6884C11.563 9.76635 12.8142 9.24844 14.1188 9.24844ZM23.686 22.8422H31.8235V26.5922H31.936C33.0703 24.4453 35.836 22.1813 39.9657 22.1813C48.5625 22.1625 50.1563 27.8203 50.1563 35.1563V50.1563H41.6672V36.8672C41.6672 33.7031 41.611 29.6297 37.2563 29.6297C32.9016 29.6297 32.161 33.0797 32.161 36.6609V50.1563H23.686V22.8422Z" fill="white"/>
</svg>
