<svg width="137" height="137" viewBox="0 0 137 137" fill="none" xmlns="http://www.w3.org/2000/svg">
<path d="M67.8482 13.1091C63.3293 13.1305 59.016 13.5148 55.2185 14.1869C44.0337 16.1627 42.0044 20.2984 42.0044 27.9265V37.9992H68.4336V41.3568H32.0848C24.4042 41.3568 17.6784 45.9731 15.5741 54.7582C13.1467 64.8245 13.0396 71.1072 15.5741 81.6188C17.4525 89.4438 21.9393 95.018 29.6209 95.018H38.7089V82.9427C38.7089 74.2186 46.2557 66.5241 55.2196 66.5241H81.6188C88.9676 66.5241 94.8329 60.4726 94.8329 53.0939V27.9276C94.8329 20.764 88.7899 15.3835 81.6188 14.188C77.0764 13.4324 72.366 13.0888 67.8482 13.1091ZM53.5552 21.2103C56.2845 21.2103 58.5151 23.4762 58.5151 26.2633C58.5151 29.0386 56.2856 31.283 53.5552 31.283C50.8152 31.283 48.5965 29.0386 48.5965 26.2633C48.5954 23.4762 50.8152 21.2103 53.5552 21.2103Z" fill="url(#paint0_linear_104_1407)"/>
<path d="M98.1284 41.3569V53.094C98.1284 62.1916 90.4136 69.8497 81.6177 69.8497H55.2185C47.9875 69.8497 42.0044 76.0393 42.0044 83.2811V108.449C42.0044 115.611 48.2315 119.825 55.2185 121.879C63.5841 124.337 71.6071 124.782 81.6177 121.879C88.2708 119.951 94.8318 116.074 94.8318 108.449V98.3757H68.4336V95.017H108.048C115.729 95.017 118.593 89.6601 121.264 81.6178C124.024 73.3389 123.905 65.3769 121.264 54.7572C119.366 47.1098 115.74 41.3558 108.048 41.3558L98.1284 41.3569ZM83.2799 105.091C86.021 105.091 88.2398 107.335 88.2398 110.113C88.2398 112.898 86.0199 115.164 83.2799 115.164C80.5506 115.164 78.3212 112.898 78.3212 110.113C78.3212 107.335 80.5506 105.091 83.2799 105.091Z" fill="url(#paint1_linear_104_1407)"/>
<path opacity="0.444" d="M104.151 128.006C104.151 131.798 88.2933 134.873 68.7333 134.873C49.1723 134.873 33.3145 131.798 33.3145 128.006C33.3145 124.213 49.1712 121.138 68.7333 121.138C88.2933 121.138 104.151 124.212 104.151 128.006Z" fill="url(#paint2_radial_104_1407)"/>
<defs>
<linearGradient id="paint0_linear_104_1407" x1="11.0637" y1="16.2587" x2="72.022" y2="68.2436" gradientUnits="userSpaceOnUse">
<stop stop-color="#5A9FD4"/>
<stop offset="1" stop-color="#306998"/>
</linearGradient>
<linearGradient id="paint1_linear_104_1407" x1="94.9569" y1="100.558" x2="73.0963" y2="69.9024" gradientUnits="userSpaceOnUse">
<stop stop-color="#FFD43B"/>
<stop offset="1" stop-color="#FFE873"/>
</linearGradient>
<radialGradient id="paint2_radial_104_1407" cx="0" cy="0" r="1" gradientUnits="userSpaceOnUse" gradientTransform="translate(68.5902 127.809) rotate(-90) scale(6.86961 30.1977)">
<stop stop-color="#B8B8B8" stop-opacity="0.498"/>
<stop offset="1" stop-color="#7F7F7F" stop-opacity="0"/>
</radialGradient>
</defs>
</svg>
