<svg width="61" height="59" viewBox="0 0 61 59" fill="none" xmlns="http://www.w3.org/2000/svg">
<g clip-path="url(#clip0_95_1396)">
<path d="M29.9444 -2.95434e-05H30.1708C35.6285 -2.95434e-05 40.7356 1.48868 45.11 4.07997L44.9761 4.00468C49.4524 6.59494 53.1827 10.2939 55.8063 14.7438L55.8817 14.8847C58.5343 19.4304 59.9241 24.5994 59.908 29.8593C59.908 42.9881 51.4294 54.145 39.6377 58.1715L39.4259 58.2347C39.1621 58.314 38.8833 58.3305 38.6118 58.2829C38.3404 58.2352 38.084 58.1247 37.8631 57.9603L37.868 57.9627C37.7084 57.8203 37.5808 57.6459 37.4936 57.4508C37.4063 57.2558 37.3614 57.0446 37.3617 56.831V56.797V56.7994L37.3812 53.822C37.3941 51.9147 37.4006 50.171 37.4006 48.5908C37.4909 47.5782 37.3559 46.5581 37.0054 45.6035C36.6549 44.6488 36.0974 43.7832 35.3729 43.0683C36.7845 42.9331 38.183 42.6854 39.555 42.3275L39.37 42.3688C40.6789 42.0111 41.9364 41.4871 43.1115 40.8097L43.036 40.851C44.2352 40.1968 45.3018 39.3255 46.1811 38.2815L46.1957 38.2645C47.125 37.0742 47.8189 35.7185 48.2405 34.2695L48.2624 34.1845C48.7998 32.3871 49.0696 30.5207 49.0633 28.645L49.0609 28.3147V28.3317L49.0633 28.1568C49.067 25.246 47.9629 22.4424 45.9742 20.3125L45.9815 20.3198C46.3904 19.2513 46.6266 18.0175 46.6266 16.728C46.6285 15.2051 46.2927 13.7007 45.6431 12.3225L45.6699 12.3857C44.5872 12.1849 43.4685 12.3391 42.481 12.8253L42.5102 12.8131C41.2288 13.2801 39.9961 13.8706 38.8296 14.5763L38.9221 14.5228L37.4396 15.4554C35.1952 14.8143 32.6173 14.4451 29.9541 14.4451C27.291 14.4451 24.7131 14.8143 22.2691 15.504L22.4663 15.4554C22.0508 15.1704 21.4982 14.8199 20.8085 14.4038C19.8152 13.8433 18.78 13.3602 17.7121 12.9588L17.5515 12.9054C16.5244 12.372 15.3503 12.1895 14.2092 12.3857L14.2408 12.3808C13.6058 13.7405 13.2791 15.2231 13.2842 16.7231C13.2842 18.0127 13.5203 19.2488 13.9536 20.3878L13.9292 20.3174C11.9001 22.4924 10.7961 25.3681 10.8499 28.339V28.3293L10.8474 28.645C10.8474 30.6097 11.1395 32.5088 11.6848 34.2963L11.6483 34.1578C12.1084 35.7194 12.807 37.077 13.7175 38.2694L13.6955 38.2378C14.5489 39.2863 15.5959 40.1619 16.7798 40.817L16.8333 40.8437C17.885 41.4557 19.1045 41.973 20.3874 42.3348L20.4994 42.3615C21.6338 42.6651 22.9921 42.9128 24.3821 43.0513L24.494 43.061C23.4449 44.1004 22.7462 45.4895 22.5856 47.039L22.5831 47.0681C22.0412 47.327 21.4699 47.5195 20.8816 47.6413L20.8304 47.651C20.2073 47.7748 19.494 47.8453 18.7613 47.8453H18.6006H18.6079C17.6861 47.8278 16.7911 47.5332 16.0398 47.0001L16.0544 47.0098C15.1606 46.3911 14.4258 45.5707 13.9098 44.6153L13.8927 44.5788C13.4243 43.781 12.7861 43.0954 12.0232 42.5704L12.0013 42.5558C11.4348 42.1335 10.7941 41.8205 10.1123 41.633L10.0733 41.6233L9.29436 41.5067C8.90341 41.4779 8.51108 41.5394 8.14781 41.6864L8.16485 41.6791C7.95713 41.7957 7.89221 41.9446 7.97011 42.126C8.06505 42.3348 8.18189 42.5145 8.32308 42.6724L8.32065 42.67C8.46914 42.8448 8.6371 42.9978 8.81967 43.1314L8.82698 43.1363L9.09962 43.3305C9.78852 43.69 10.3557 44.1903 10.7866 44.795L10.7963 44.8095C11.2613 45.3851 11.6702 46.036 11.9989 46.733L12.0232 46.7913L12.4127 47.685C12.7413 48.6613 13.3377 49.4773 14.1167 50.0674L14.1289 50.0771C14.8591 50.6454 15.7403 51.0534 16.7019 51.238L16.7408 51.2428C17.5442 51.3983 18.4789 51.4954 19.4332 51.5148H19.4502C19.5597 51.5197 19.6863 51.5197 19.8153 51.5197C20.4507 51.5197 21.0739 51.4687 21.6824 51.3691L21.6167 51.3788L22.5125 51.2234C22.5125 52.2094 22.519 53.3573 22.532 54.6671C22.545 55.9769 22.5515 56.6836 22.5515 56.7873V56.8213C22.5515 57.2705 22.3567 57.6737 22.0451 57.953C21.8237 58.119 21.5633 58.23 21.2903 58.2769C21.0173 58.3238 20.737 58.3052 20.4726 58.2225L20.4848 58.225C8.48618 54.1231 0.0148621 42.9663 0.0148621 29.835C0.0148621 24.327 1.50464 19.1663 4.1069 14.7317L4.029 14.8725C6.62535 10.4068 10.3331 6.68521 14.7934 4.06783L14.9346 3.99254C19.4138 1.36156 24.5202 -0.0183589 29.718 -0.00245811H29.9566H29.9444V-2.95434e-05ZM11.3465 42.9031C11.4244 42.7218 11.3335 42.5664 11.0738 42.4368C10.8142 42.3591 10.6454 42.385 10.5675 42.5145C10.4896 42.6959 10.5805 42.8513 10.8401 42.9808C11.0738 43.1363 11.2426 43.1104 11.3465 42.9031ZM12.5563 44.2267C12.7381 44.0972 12.7121 43.8899 12.4784 43.605C12.2187 43.3718 12.011 43.333 11.8552 43.4884C11.6735 43.6179 11.6994 43.8252 11.9331 44.1101C12.1912 44.3643 12.3989 44.4024 12.5563 44.2243V44.2267ZM13.7248 45.9753C13.9585 45.7939 13.9585 45.5478 13.7248 45.237C13.517 44.9002 13.2963 44.8225 13.0626 45.0038C12.8289 45.1334 12.8289 45.3665 13.0626 45.7033C13.2963 46.04 13.517 46.1307 13.7248 45.9753ZM15.3606 47.6097C15.5683 47.4024 15.5164 47.1564 15.2048 46.8714C14.8932 46.5605 14.6336 46.5217 14.4258 46.7548C14.1921 46.9621 14.2441 47.2082 14.5816 47.4931C14.8932 47.804 15.1529 47.8396 15.3606 47.6V47.6097ZM17.5831 48.5811C17.661 48.2962 17.4922 48.0889 17.0768 47.9594C16.6873 47.8558 16.4406 47.9465 16.3367 48.2314C16.2329 48.5164 16.4017 48.7106 16.8431 48.8143C17.2326 48.9713 17.4792 48.8936 17.5831 48.5811ZM20.0393 48.7754C20.0393 48.4386 19.8186 48.2962 19.3772 48.348C18.9617 48.348 18.754 48.4904 18.754 48.7754C18.754 49.1122 18.9747 49.2546 19.4161 49.2028C19.8316 49.2044 20.0393 49.0604 20.0393 48.7754ZM22.3008 48.3868C22.2488 48.1019 22.0151 47.9853 21.5997 48.0371C21.1842 48.1148 21.0025 48.3091 21.0544 48.62C21.1063 48.9308 21.34 49.0345 21.7555 48.9308C22.1709 48.8272 22.3511 48.6459 22.3008 48.3868Z" fill="#9747FF"/>
</g>
<defs>
<clipPath id="clip0_95_1396">
<rect width="60.8571" height="58.2857" fill="white"/>
</clipPath>
</defs>
</svg>
