<svg width="137" height="137" viewBox="0 0 137 137" fill="none" xmlns="http://www.w3.org/2000/svg">
<path d="M118.943 0H71.0566L60.2436 22.5647H0V112.823H129.755V0H118.943ZM118.943 22.5647H76.7205L82.3844 11.2823H118.943V22.5647Z" fill="#8EBF55"/>
<path d="M89.0162 137C87.5575 137.001 86.1243 136.6 84.861 135.84L71.628 127.673C69.6559 126.518 70.5981 126.11 71.2675 125.873C73.3624 125.189 75.3671 124.234 77.2352 123.031C77.3925 122.958 77.565 122.927 77.7368 122.941C77.9087 122.955 78.0743 123.014 78.2187 123.112L88.3829 129.409C88.5724 129.513 88.7837 129.568 88.9982 129.568C89.2127 129.568 89.424 129.513 89.6135 129.409L129.261 105.544C129.446 105.428 129.6 105.265 129.706 105.069C129.813 104.873 129.869 104.651 129.869 104.426V56.7127C129.869 56.4839 129.812 56.2589 129.705 56.0595C129.598 55.86 129.443 55.6927 129.256 55.5737L89.6496 31.7303C89.4624 31.6207 89.2514 31.5631 89.0368 31.5631C88.8222 31.5631 88.6112 31.6207 88.4241 31.7303L48.8126 55.5791C48.6229 55.6952 48.4653 55.8607 48.3552 56.0594C48.2451 56.2581 48.1863 56.4832 48.1844 56.7127V104.426C48.1845 104.652 48.2423 104.873 48.3518 105.068C48.4613 105.262 48.6186 105.423 48.8075 105.533L59.6616 112.077C65.5521 115.15 69.1616 111.539 69.1616 107.897V60.785C69.1609 60.6278 69.1902 60.4719 69.2477 60.3265C69.3052 60.1811 69.3898 60.0491 69.4967 59.9382C69.6035 59.8272 69.7304 59.7395 69.87 59.6801C70.0096 59.6208 70.1591 59.5909 70.3098 59.5923H75.3353C75.4854 59.5923 75.634 59.6232 75.7727 59.6831C75.9114 59.7431 76.0374 59.8309 76.1435 59.9417C76.2497 60.0524 76.3339 60.1839 76.3913 60.3286C76.4488 60.4733 76.4783 60.6284 76.4783 60.785V107.897C76.6883 109.586 76.5348 111.302 76.0289 112.921C75.523 114.54 74.6775 116.021 73.554 117.256C72.4305 118.491 71.0571 119.449 69.5339 120.061C68.0108 120.672 66.3761 120.922 64.7489 120.791C61.5279 120.85 58.3576 119.95 55.6093 118.196L45.2186 111.953C43.9574 111.187 42.9103 110.089 42.1814 108.77C41.4525 107.45 41.067 105.955 41.0633 104.432V56.7127C41.065 55.1892 41.4495 53.6929 42.1787 52.3731C42.9078 51.0533 43.956 49.9561 45.2186 49.1911L84.8661 25.2994C86.1426 24.571 87.5742 24.1892 89.0291 24.1892C90.484 24.1892 91.9156 24.571 93.1921 25.2994L132.84 49.1911C134.102 49.9566 135.15 51.0538 135.88 52.3734C136.61 53.693 136.996 55.1891 137 56.7127V104.426C136.994 105.949 136.607 107.445 135.878 108.764C135.148 110.083 134.101 111.181 132.84 111.948L93.1921 135.818C91.9246 136.59 90.4838 136.998 89.0162 137Z" fill="white"/>
<path d="M81.5142 88.4592C81.5135 88.3023 81.5426 88.1469 81.5998 88.0019C81.657 87.8569 81.7412 87.7251 81.8475 87.6142C81.9538 87.5033 82.08 87.4155 82.219 87.3558C82.358 87.2961 82.507 87.2658 82.6573 87.2665H87.8063C88.0803 87.2655 88.3456 87.3668 88.5542 87.552C88.7629 87.7372 88.9013 87.9942 88.9442 88.2765C89.7166 93.7189 92.0337 96.4643 102.507 96.4643C110.853 96.4643 114.406 94.4925 114.406 89.8722C114.406 87.1859 113.376 85.2303 100.427 83.9033C89.5827 82.7858 82.8787 80.2822 82.8787 71.2348C82.8787 62.8912 89.6188 57.9163 100.9 57.9163C113.598 57.9163 119.874 62.5152 120.673 72.3738C120.687 72.5387 120.668 72.705 120.617 72.862C120.567 73.019 120.485 73.1632 120.378 73.2855C120.271 73.4078 120.141 73.5055 119.996 73.5724C119.85 73.6393 119.693 73.6739 119.535 73.6739H114.386C114.126 73.673 113.874 73.58 113.672 73.4101C113.47 73.2402 113.33 73.0035 113.273 72.7391C112.043 67.012 109.036 65.1799 100.916 65.1799C91.802 65.1799 90.7464 68.4948 90.7464 70.9769C90.7464 73.9855 91.9976 74.8613 104.299 76.559C116.476 78.2406 122.258 80.6153 122.258 89.5498C122.258 98.4843 115.05 103.717 102.507 103.717C85.1443 103.728 81.5142 95.4274 81.5142 88.4592Z" fill="white"/>
</svg>
