<svg width="74" height="111" viewBox="0 0 74 111" fill="none" xmlns="http://www.w3.org/2000/svg">
<g clip-path="url(#clip0_104_1411)">
<path d="M18.5 111C28.712 111 37 102.712 37 92.5V74H18.5C8.288 74 0 82.288 0 92.5C0 102.712 8.288 111 18.5 111Z" fill="#0ACF83"/>
<path d="M0 55.5C0 45.288 8.288 37 18.5 37H37V74H18.5C8.288 74 0 65.712 0 55.5Z" fill="#A259FF"/>
<path d="M0 18.5C0 8.288 8.288 0 18.5 0H37V37H18.5C8.288 37 0 28.712 0 18.5Z" fill="#F24E1E"/>
<path d="M37 0H55.5C65.712 0 74 8.288 74 18.5C74 28.712 65.712 37 55.5 37H37V0Z" fill="#FF7262"/>
<path d="M74 55.5C74 65.712 65.712 74 55.5 74C45.288 74 37 65.712 37 55.5C37 45.288 45.288 37 55.5 37C65.712 37 74 45.288 74 55.5Z" fill="#1ABCFE"/>
</g>
<defs>
<clipPath id="clip0_104_1411">
<rect width="74" height="111" fill="white"/>
</clipPath>
</defs>
</svg>
