<svg width="59" height="59" viewBox="0 0 59 59" fill="none" xmlns="http://www.w3.org/2000/svg">
<g clip-path="url(#clip0_95_1390)">
<path d="M14.0893 0H45.0536C52.5982 0 58.7143 6.11611 58.7143 13.6607V44.625C58.7143 52.1696 52.5982 58.2857 45.0536 58.2857H14.0893C6.54469 58.2857 0.428581 52.1696 0.428581 44.625V13.6607C0.428581 6.11611 6.54469 0 14.0893 0Z" fill="url(#paint0_radial_95_1390)"/>
<path d="M14.0893 0H45.0536C52.5982 0 58.7143 6.11611 58.7143 13.6607V44.625C58.7143 52.1696 52.5982 58.2857 45.0536 58.2857H14.0893C6.54469 58.2857 0.428581 52.1696 0.428581 44.625V13.6607C0.428581 6.11611 6.54469 0 14.0893 0Z" fill="url(#paint1_radial_95_1390)"/>
<path d="M29.5694 6.375C35.7527 6.375 36.5288 6.40209 38.9573 6.51252C41.3811 6.62363 43.0357 7.00726 44.4832 7.57031C45.9809 8.1518 47.2511 8.92978 48.5166 10.1957C49.7831 11.4613 50.5611 12.7316 51.1444 14.2285C51.7091 15.6766 52.0932 17.3318 52.2022 19.7545C52.3108 22.1832 52.3393 22.9596 52.3393 29.1431C52.3393 35.3266 52.312 36.1003 52.2018 38.5287C52.0902 40.9525 51.7066 42.6071 51.144 44.0547C50.562 45.5523 49.7841 46.8226 48.5182 48.088C47.253 49.3546 45.9827 50.1344 44.4862 50.7159C43.0375 51.2789 41.3827 51.6625 38.9593 51.7736C36.5307 51.8841 35.7552 51.9112 29.5721 51.9112C23.3881 51.9112 22.6145 51.8841 20.1861 51.7736C17.7622 51.6625 16.1058 51.2789 14.6571 50.7159C13.1601 50.1344 11.8917 49.3546 10.6268 48.088C9.36019 46.8226 8.58243 45.5523 7.99889 44.0553C7.43926 42.6071 7.05494 40.9521 6.9411 38.5291C6.83204 36.1007 6.80358 35.3266 6.80358 29.1431C6.80358 22.9596 6.83204 22.1836 6.9411 19.755C7.05494 17.3311 7.43926 15.6768 7.99889 14.2292C8.58243 12.7316 9.36019 11.4613 10.6268 10.1957C11.8931 8.92933 13.1597 8.15135 14.6585 7.57054C16.1099 7.00726 17.7654 6.6234 20.1893 6.51252C22.6179 6.40209 23.3911 6.375 29.5764 6.375H29.5694ZM31.6119 10.478C31.0056 10.4771 30.3292 10.478 29.5694 10.478C23.4901 10.478 22.7698 10.4999 20.3691 10.6089C18.1493 10.7105 16.9444 11.0813 16.1418 11.393C15.0792 11.8056 14.3218 12.299 13.5253 13.0961C12.7285 13.8929 12.2353 14.6518 11.8216 15.7144C11.5099 16.5158 11.1386 17.7207 11.0375 19.9405C10.9284 22.3407 10.9048 23.0616 10.9048 29.1378C10.9048 35.2141 10.9284 35.9352 11.0375 38.3351C11.139 40.555 11.5099 41.7599 11.8216 42.5615C12.2342 43.6241 12.7285 44.3807 13.5253 45.1771C14.3222 45.974 15.0788 46.4671 16.1418 46.8799C16.9435 47.193 18.1493 47.563 20.3691 47.6645C22.7693 47.7736 23.4901 47.7972 29.5694 47.7972C35.6489 47.7972 36.3695 47.7736 38.7694 47.6645C40.9893 47.5621 42.1942 47.1912 42.9974 46.8795C44.0598 46.4667 44.8188 45.9735 45.6157 45.1767C46.4126 44.3798 46.9057 43.6228 47.3194 42.5597C47.6311 41.7581 48.0025 40.5532 48.1036 38.3333C48.2126 35.9331 48.2345 35.2123 48.2345 29.1322C48.2345 23.0522 48.2126 22.335 48.1036 19.9349C48.002 17.715 47.6311 16.5101 47.3194 15.7075C46.9067 14.645 46.4126 13.8861 45.6155 13.0892C44.8186 12.2924 44.0598 11.799 42.9972 11.3855C42.1946 11.0725 40.9893 10.7025 38.7694 10.6005C36.6691 10.5055 35.8551 10.4771 31.6119 10.4723V10.478ZM17.4159 14.2584C18.9243 14.2584 20.148 15.481 20.148 16.9896C20.148 18.498 18.9243 19.7217 17.4159 19.7217C15.9075 19.7217 14.6838 18.498 14.6838 16.9896C14.6838 15.4812 15.9075 14.2575 17.4159 14.2575V14.2584ZM29.5694 17.4507C36.0264 17.4507 41.2616 22.6859 41.2616 29.1431C41.2616 35.6003 36.0264 40.833 29.5694 40.833C23.1122 40.833 17.8788 35.6003 17.8788 29.1431C17.8788 22.6861 23.1127 17.4507 29.5698 17.4507H29.5694ZM29.5694 21.5536C25.3781 21.5536 21.98 24.9513 21.98 29.1431C21.98 33.3344 25.3781 36.7325 29.5694 36.7325C33.761 36.7325 37.1586 33.3344 37.1586 29.1431C37.1586 24.9513 33.761 21.5536 29.5694 21.5536Z" fill="white"/>
</g>
<defs>
<radialGradient id="paint0_radial_95_1390" cx="0" cy="0" r="1" gradientUnits="userSpaceOnUse" gradientTransform="translate(43.2322 62.7748) rotate(-90) scale(57.7655 53.7264)">
<stop stop-color="#FFDD55"/>
<stop offset="0.1" stop-color="#FFDD55"/>
<stop offset="0.5" stop-color="#FF543E"/>
<stop offset="1" stop-color="#C837AB"/>
</radialGradient>
<radialGradient id="paint1_radial_95_1390" cx="0" cy="0" r="1" gradientUnits="userSpaceOnUse" gradientTransform="translate(68.4774 4.19862) rotate(101.319) scale(25.8215 106.437)">
<stop stop-color="#3771C8"/>
<stop offset="0.128" stop-color="#3771C8"/>
<stop offset="1" stop-color="#6600FF" stop-opacity="0"/>
</radialGradient>
<clipPath id="clip0_95_1390">
<rect width="58.2857" height="58.2857" fill="white" transform="matrix(-1 0 0 1 58.7143 0)"/>
</clipPath>
</defs>
</svg>
