<svg width="137" height="137" viewBox="0 0 137 137" fill="none" xmlns="http://www.w3.org/2000/svg">
<g clip-path="url(#clip0_15_634)">
<path d="M104.891 0H32.1094C14.3759 0 0 14.3759 0 32.1094V104.891C0 122.624 14.3759 137 32.1094 137H104.891C122.624 137 137 122.624 137 104.891V32.1094C137 14.3759 122.624 0 104.891 0Z" fill="#242938"/>
<path d="M68.5005 78.6417C74.0148 78.6417 78.4844 74.1715 78.4844 68.6578C78.4844 63.1441 74.0148 58.674 68.5005 58.674C62.9868 58.674 58.5167 63.1441 58.5167 68.6578C58.5167 74.1715 62.9868 78.6417 68.5005 78.6417Z" fill="#00D8FF"/>
<path d="M68.5011 48.3583C81.9057 48.3583 94.3582 50.2816 103.748 53.5145C115.06 57.4088 122.016 63.3121 122.016 68.6578C122.016 74.2283 114.644 80.4998 102.496 84.5247C93.3114 87.5676 81.2255 89.1559 68.5011 89.1559C55.455 89.1559 43.1009 87.665 33.8128 84.491C22.0618 80.4746 14.9844 74.1223 14.9844 68.6578C14.9844 63.3555 21.6257 57.4977 32.7794 53.6092C42.2035 50.3234 54.9632 48.3583 68.4989 48.3583H68.5011Z" stroke="#00D8FF" stroke-width="4.91"/>
<path d="M50.8297 58.5664C57.5266 46.9546 65.4132 37.1281 72.9043 30.6099C81.9292 22.7554 90.5185 19.6793 95.1486 22.3492C99.9742 25.132 101.725 34.6514 99.1425 47.1858C97.1919 56.6618 92.5285 67.9247 86.1714 78.9478C79.6537 90.2493 72.191 100.206 64.8021 106.665C55.4524 114.838 46.413 117.795 41.6796 115.066C37.0863 112.419 35.33 103.738 37.5337 92.133C39.3955 82.3274 44.068 70.2922 50.8275 58.5664H50.8297Z" stroke="#00D8FF" stroke-width="4.91"/>
<path d="M50.8463 78.9773C44.1306 67.3783 39.5582 55.6359 37.6498 45.8907C35.3524 34.1489 36.9766 25.1716 41.603 22.4937C46.4243 19.7023 55.5449 22.94 65.1146 31.4372C72.3499 37.8612 79.7795 47.5246 86.1548 58.537C92.6912 69.8277 97.59 81.2667 99.4957 90.8931C101.907 103.075 99.9554 112.383 95.2262 115.121C90.6378 117.777 82.2407 114.965 73.287 107.26C65.722 100.75 57.6283 90.6919 50.8463 78.9773Z" stroke="#00D8FF" stroke-width="4.91"/>
</g>
<defs>
<clipPath id="clip0_15_634">
<rect width="137" height="137" fill="white"/>
</clipPath>
</defs>
</svg>
